<?xml version="1.0" encoding="iso-8859-1"?>
<!-- Generator: Adobe Illustrator 19.0.0, SVG Export Plug-In . SVG Version: 6.00 Build 0)  -->
<svg version="1.1" id="Capa_1" xmlns="http://www.w3.org/2000/svg" xmlns:xlink="http://www.w3.org/1999/xlink" x="0px" y="0px"
	 viewBox="0 0 457.522 457.522" style="enable-background:new 0 0 457.522 457.522;" xml:space="preserve">
<g>
	<circle style="fill:#70A9DC;" cx="407.931" cy="396.701" r="8"/>
	<path style="fill:#70A9DC;" d="M407.938,340.705c-4.418,0-8,3.581-8,8v16c0,4.418,3.582,8,8,8s8-3.582,8-8v-16
		C415.938,344.285,412.356,340.705,407.938,340.705z"/>
	<path style="fill:#70A9DC;" d="M407.938,420.705c-4.418,0-8,3.581-8,7.999v16.001c0,4.418,3.582,8,8,8s8-3.582,8-8v-16.001
		C415.938,424.285,412.356,420.705,407.938,420.705z"/>
	<path style="fill:#70A9DC;" d="M384.238,373.785l-13.855-8c-3.828-2.209-8.718-0.898-10.93,2.928s-0.898,8.718,2.93,10.928
		l13.855,8c3.824,2.209,8.718,0.898,10.926-2.928C389.375,380.886,388.062,375.993,384.238,373.785z"/>
	<path style="fill:#70A9DC;" d="M453.52,413.785l-13.855-8c-3.828-2.209-8.718-0.898-10.93,2.928
		c-2.207,3.827-0.898,8.72,2.93,10.929l13.855,8c3.828,2.209,8.718,0.898,10.93-2.929
		C458.657,420.887,457.348,415.994,453.52,413.785z"/>
	<path style="fill:#70A9DC;" d="M376.211,405.785l-13.851,8c-3.828,2.209-5.141,7.102-2.93,10.928
		c2.211,3.827,7.102,5.138,10.93,2.929l13.851-8c3.828-2.209,5.141-7.102,2.93-10.928
		C384.93,404.887,380.039,403.577,376.211,405.785z"/>
	<path style="fill:#70A9DC;" d="M439.641,387.645l13.855-8c3.824-2.209,5.137-7.102,2.93-10.928
		c-2.211-3.826-7.106-5.137-10.93-2.928l-13.855,8c-3.828,2.209-5.137,7.102-2.93,10.928
		C430.922,388.543,435.813,389.855,439.641,387.645z"/>
</g>
<path style="fill:#F3F3F3;" d="M352,68.817c-5.588,0-11.031,0.578-16.355,1.494C313.727,31.253,271.977,4.817,224,4.817
	s-89.726,26.434-111.645,65.494c-5.324-0.916-10.767-1.494-16.355-1.494c-53.019,0-96,42.981-96,96s42.981,96,96,96h256
	c53.019,0,96-42.981,96-96S405.02,68.817,352,68.817z"/>
<path style="fill:#E1E1E1;" d="M352,68.817c-5.586,0-11.031,0.578-16.355,1.494c-0.098-0.177-0.23-0.332-0.332-0.509
	c10.57,18.62,16.687,40.1,16.687,63.041c0,70.678-57.297,127.974-127.973,127.974H352c53.019,0,96-42.981,96-96
	S405.02,68.817,352,68.817z"/>
<path style="fill:#A4C4E7;" d="M313.5,260.817l30.953-53.578c2.859-4.946,2.859-11.047,0-16s-8.141-8-13.859-8h-61.875
	l-30.922-53.586c-2.859-4.946-8.141-8-13.859-8s-11,3.047-13.859,8l-30.938,53.586h-61.875c-5.718,0-11,3.047-13.859,8
	s-2.859,11.054,0,16l30.938,53.578l-30.938,53.578c-2.859,4.946-2.859,11.047,0,16s8.141,8,13.859,8h61.875l30.938,53.586
	c2.859,4.953,8.141,8,13.859,8s11-3.054,13.859-8l30.922-53.586h61.875c5.718,0,11-3.047,13.859-8s2.859-11.054,0-16L313.5,260.817z
	 M285.782,244.833h-34.133l17.078-29.594h34.149L285.782,244.833z M223.938,169.653l17.07,29.586l-17.074,29.584l-17.082-29.584
	L223.938,169.653z M179.133,215.24l17.086,29.588l-34.149-0.008l-17.086-29.58L179.133,215.24L179.133,215.24z M162.066,276.82
	l34.152,0.008l-17.082,29.568h-34.152L162.066,276.82z M223.938,351.981l-17.082-29.584l17.078-29.568l17.074,29.57L223.938,351.981
	z M268.726,306.396l-17.07-29.562h34.145l17.074,29.562H268.726z"/>
<g>
	<circle style="fill:#70A9DC;" cx="150.011" cy="132.805" r="16"/>
	<ellipse style="fill:#70A9DC;" cx="76.111" cy="260.847" rx="16" ry="16"/>
	<ellipse style="fill:#70A9DC;" cx="150" cy="388.822" rx="16" ry="16"/>
	<circle style="fill:#70A9DC;" cx="297.819" cy="388.853" r="16"/>
	<ellipse style="fill:#70A9DC;" cx="371.736" cy="260.854" rx="16" ry="16"/>
	<ellipse style="fill:#70A9DC;" cx="297.852" cy="132.83" rx="16" ry="16"/>
</g>
<g>
</g>
<g>
</g>
<g>
</g>
<g>
</g>
<g>
</g>
<g>
</g>
<g>
</g>
<g>
</g>
<g>
</g>
<g>
</g>
<g>
</g>
<g>
</g>
<g>
</g>
<g>
</g>
<g>
</g>
</svg>
